HIERARCHY
ROOT root
{
	OFFSET 0.000000 0.000000 0.000000
	CHANNELS 6 Xposition Yposition Zposition Zrotation Yrotation Xrotation
	JOINT lhip
	{
		OFFSET 0.058581 -0.082280 -0.017664
		CHANNELS 3 Zrotation Yrotation Xrotation
		JOINT lknee
		{
			OFFSET 0.043451 -0.386469 0.008037
			CHANNELS 3 Zrotation Yrotation Xrotation
			JOINT lankle
			{
				OFFSET -0.014790 -0.426874 -0.037428
				CHANNELS 3 Zrotation Yrotation Xrotation
				JOINT ltoe
				{
					OFFSET 0.041054 -0.060286 0.122042
					CHANNELS 3 Zrotation Yrotation Xrotation
					End Site
					{
						OFFSET 0.000000 0.000000 0.000000
					}
				}
			}
		}
	}
	JOINT rhip
	{
		OFFSET -0.060310 -0.090513 -0.013543
		CHANNELS 3 Zrotation Yrotation Xrotation
		JOINT rknee
		{
			OFFSET -0.043257 -0.383688 -0.004843
			CHANNELS 3 Zrotation Yrotation Xrotation
			JOINT rankle
			{
				OFFSET 0.019056 -0.420046 -0.034562
				CHANNELS 3 Zrotation Yrotation Xrotation
				JOINT rtoe
				{
					OFFSET -0.034840 -0.062106 0.130323
					CHANNELS 3 Zrotation Yrotation Xrotation
					End Site
					{
						OFFSET 0.000000 0.000000 0.000000
					}
				}
			}
		}
	}
	JOINT lowerback
	{
		OFFSET 0.004439 0.124404 -0.038385
		CHANNELS 3 Zrotation Yrotation Xrotation
		JOINT upperback
		{
			OFFSET 0.004488 0.137956 0.026820
			CHANNELS 3 Zrotation Yrotation Xrotation
			JOINT chest
			{
				OFFSET -0.002265 0.056032 0.002855
				CHANNELS 3 Zrotation Yrotation Xrotation
				JOINT lowerneck
				{
					OFFSET -0.013390 0.211636 -0.033468
					CHANNELS 3 Zrotation Yrotation Xrotation
					JOINT upperneck
					{
						OFFSET 0.010113 0.088937 0.050410
						CHANNELS 3 Zrotation Yrotation Xrotation
						End Site
						{
							OFFSET 0.000000 0.000000 0.000000
						}
					}
				}
				JOINT lclavicle
				{
					OFFSET 0.071702 0.114000 -0.018898
					CHANNELS 3 Zrotation Yrotation Xrotation
					JOINT lshoulder
					{
						OFFSET 0.122921 0.045205 -0.019046
						CHANNELS 3 Zrotation Yrotation Xrotation
						JOINT lelbow
						{
							OFFSET 0.255332 -0.015649 -0.022946
							CHANNELS 3 Zrotation Yrotation Xrotation
							JOINT lwrist
							{
								OFFSET 0.265709 0.012698 -0.007375
								CHANNELS 3 Zrotation Yrotation Xrotation
								End Site
								{
									OFFSET 0.000000 0.000000 0.000000
								}
							}
						}
					}
				}
				JOINT rclavicle
				{
					OFFSET -0.082954 0.112472 -0.023707
					CHANNELS 3 Zrotation Yrotation Xrotation
					JOINT rshoulder
					{
						OFFSET -0.113228 0.046853 -0.008472
						CHANNELS 3 Zrotation Yrotation Xrotation
						JOINT relbow
						{
							OFFSET -0.260127 -0.014369 -0.031269
							CHANNELS 3 Zrotation Yrotation Xrotation
							JOINT rwrist
							{
								OFFSET -0.269108 0.006794 -0.006027
								CHANNELS 3 Zrotation Yrotation Xrotation
								End Site
								{
									OFFSET 0.000000 0.000000 0.000000
								}
							}
						}
					}
				}
			}
		}
	}
}
MOTION
Frames: 8
Frame Time: 0.033333
0.556637 0.688017 0.210220 95.860800 2.898175 -13.990222 15.091195 -5.915397 -79.416806 -1.573888 22.387264 105.496756 5.334869 -4.356793 -22.929017 0.000000 -0.000000 0.000000 -21.002642 1.317179 -90.677845 -11.497412 -20.569069 114.947513 5.458814 1.421395 -13.335380 0.000000 -0.000000 0.000000 -2.513459 -2.132651 36.899272 4.888732 -3.108824 10.299300 -3.298002 -1.360975 -2.719621 -3.138091 2.266944 20.125628 3.966248 -0.009743 -4.806080 -24.287592 -11.446350 10.555547 -51.044537 -17.136450 3.932099 71.730071 -59.938921 -62.971599 35.100254 -14.716985 -12.913738 24.209728 15.414309 15.400035 53.591591 22.787288 4.154007 -83.637733 52.354832 -71.998315 -30.123142 23.624742 -23.024807 
0.547973 0.680956 0.211665 95.362432 2.106502 -21.307089 17.365871 -3.690929 -87.552972 -0.372969 22.592717 99.126230 5.243602 -5.779277 -23.764429 0.000000 -0.000000 0.000000 -21.100710 1.337793 -96.856442 -11.189297 -22.959252 105.015000 6.591430 3.153277 -13.882716 0.000000 -0.000000 0.000000 -2.363332 -0.965112 34.904956 4.818922 -2.921174 12.553908 -3.209709 -1.517809 -6.505138 -1.805747 3.586752 23.839138 3.638054 -1.141734 -3.385371 -23.758934 -13.754026 9.087294 -47.126668 -25.284420 1.295222 99.267816 -57.028698 -84.458524 35.499648 -18.120155 -11.803800 25.304383 18.122813 16.791388 46.130812 33.020117 -1.411511 -99.672053 47.341279 -82.279199 -32.179291 29.244067 -22.005168 
0.537675 0.677324 0.223244 95.628212 0.856115 -28.669614 18.269429 -0.517048 -93.538717 0.644312 22.949531 89.674112 5.195425 -6.668247 -23.265268 0.000000 -0.000000 0.000000 -19.880091 1.936414 -101.456141 -8.724019 -23.646240 92.525171 8.717443 4.401119 -13.062125 0.000000 -0.000000 0.000000 -2.898976 -1.004204 37.430612 3.239410 -1.527567 6.523797 -2.860739 -1.108074 -4.698850 -0.140574 4.890005 18.321503 2.417186 -2.580638 8.449010 -19.862901 -14.352140 2.184335 -46.114413 -33.982425 -0.168504 117.923455 -53.235227 -96.514268 36.362704 -24.210120 -8.664001 21.419473 19.955995 11.987643 45.210405 41.769677 -3.306437 -110.638549 42.968067 -88.355978 -33.336539 36.144193 -19.747387 
0.524415 0.676096 0.243656 95.621405 0.358647 -36.034218 17.500268 1.199149 -97.107284 1.015633 22.516039 77.149169 3.986329 -7.730924 -22.330910 0.000000 -0.000000 0.000000 -19.352403 2.132850 -103.151020 -6.343355 -23.597476 79.101485 12.368121 6.465491 -9.956154 0.000000 -0.000000 0.000000 -1.854779 -1.059745 42.594784 0.847521 -0.877387 -0.497751 -2.373688 -1.032083 -0.708906 -0.662784 5.343700 12.034894 3.707349 -3.302188 10.789545 -11.833027 -17.140207 -2.498734 -43.017006 -42.182129 -6.637449 134.161329 -44.109053 -107.572328 35.233953 -29.368754 -4.312220 12.084843 22.305678 5.860287 45.261076 47.782927 -7.021592 -123.941078 35.859697 -99.665872 -37.879680 39.746049 -19.732648 
0.505449 0.676851 0.265748 95.135057 -0.390181 -44.164540 17.667147 1.612834 -96.841449 -0.411364 22.029485 61.674153 0.348429 -6.816863 -19.439171 0.000000 -0.000000 0.000000 -19.465845 2.945742 -101.824086 -3.671013 -22.664048 64.932581 16.300715 5.462085 -7.311192 0.000000 -0.000000 0.000000 -1.280195 -0.883768 48.591592 0.149044 -1.039431 -2.220897 -0.858269 -1.686487 0.188855 0.052545 7.338234 6.165094 1.129613 -2.336231 13.646158 -7.676601 -22.122811 -7.999528 -26.559159 -44.834467 -16.992690 142.973057 -31.754041 -112.061776 36.557853 -34.606800 0.896413 6.036143 27.254761 0.598008 29.390623 50.527683 -17.279743 -131.448178 27.915702 -105.706622 -41.658644 44.519039 -17.910379 
0.481362 0.674970 0.289512 94.851082 -1.408402 -51.970811 17.004428 1.723123 -94.774725 -1.238612 20.824627 46.274337 -2.900894 -5.245060 -16.437590 0.000000 -0.000000 0.000000 -19.729455 4.562031 -100.063240 -2.619323 -20.306330 53.495429 17.287118 2.765349 -7.636514 0.000000 -0.000000 0.000000 -0.748158 -0.662693 52.952595 -0.513426 -1.398929 -3.289508 0.223974 -1.943398 -0.336187 -0.073390 7.473461 9.692608 2.122707 -1.401897 14.695434 -4.256029 -27.925029 -10.627980 -7.051363 -42.031782 -27.359462 145.921493 -24.844667 -112.725182 39.716217 -43.026514 5.979027 2.216549 32.306520 -2.486017 13.654072 48.604568 -27.517393 -133.513688 23.794036 -107.261532 -46.835181 48.991163 -15.611674 
0.451404 0.672086 0.316496 94.832673 -2.112913 -59.495977 15.317071 1.290289 -92.704670 -1.722415 18.288358 34.815400 -6.231531 -4.749675 -12.729721 0.000000 -0.000000 0.000000 -19.552970 5.728977 -98.451402 -3.678022 -18.304156 46.803920 17.487317 1.591038 -7.555449 0.000000 -0.000000 0.000000 -0.034174 -1.124895 55.420231 -1.709776 -1.510385 -4.600323 0.538635 -0.925953 0.330780 -1.759600 5.771729 17.335562 5.091106 -2.008392 14.235331 3.504849 -29.332286 -14.661298 -1.470638 -40.386137 -31.634817 146.594263 -23.968724 -112.067840 48.870081 -46.885401 3.252168 -7.414061 31.759664 -9.168443 16.125050 46.890167 -27.453570 -136.126429 21.696908 -108.954657 -55.018610 48.730502 -18.083981 
0.415394 0.668993 0.342001 95.257199 -2.924157 -66.919510 14.207512 1.079508 -90.607764 -1.699513 16.438522 28.412530 -8.483716 -5.094850 -9.321574 0.000000 -0.000000 0.000000 -18.138914 7.176045 -96.462059 -4.378549 -15.780996 42.194926 17.156442 0.575298 -6.075867 0.000000 -0.000000 0.000000 -0.324906 -1.211209 57.557711 -2.178992 -1.345254 -6.176820 1.825312 0.819748 1.846375 -3.484452 5.031564 24.628324 6.213486 -2.170573 14.327915 11.449133 -25.978732 -19.585708 -3.266051 -41.285425 -32.240679 143.482351 -26.614897 -108.447667 53.682768 -45.940579 -0.169009 -16.349689 29.239312 -14.969835 19.957992 45.670462 -25.779602 -137.479784 22.371979 -108.061812 -61.000305 49.809446 -18.049362 
